<?xml version="1.0" standalone="no"?>
<!DOCTYPE svg PUBLIC "-//W3C//DTD SVG 20010904//EN"
 "http://www.w3.org/TR/2001/REC-SVG-20010904/DTD/svg10.dtd">
<svg version="1.0" xmlns="http://www.w3.org/2000/svg"
 width="512.000000pt" height="512.000000pt" viewBox="0 0 512.000000 512.000000"
 preserveAspectRatio="xMidYMid meet">
<metadata>
Created by potrace 1.11, written by Peter Selinger 2001-2013
</metadata>
<g transform="translate(0.000000,512.000000) scale(0.100000,-0.100000)"
fill="#000000" stroke="none">
<path d="M2283 4894 c-797 -96 -1488 -590 -1860 -1329 -374 -742 -339 -1615
94 -2330 307 -507 808 -886 1394 -1054 939 -269 1969 76 2558 858 320 426 483
914 484 1446 0 543 -162 1017 -504 1475 -393 525 -972 859 -1625 935 -155 18
-388 18 -541 -1z m1547 -1069 c98 -120 166 -240 245 -430 58 -140 92 -485 66
-667 -42 -287 -162 -547 -343 -741 l-63 -68 -112 109 c-62 60 -113 113 -113
119 0 6 7 16 15 23 56 47 174 258 220 393 68 203 72 509 9 716 -36 123 -120
275 -213 390 l-36 44 114 108 c132 125 112 125 211 4z m-1530 -351 c86 -25
193 -97 260 -175 95 -110 142 -234 142 -374 0 -215 -128 -417 -323 -512 -173
-85 -325 -85 -497 -3 -142 68 -248 186 -298 335 -23 67 -28 96 -28 185 1 109
10 150 60 255 47 101 153 204 269 262 102 52 289 64 415 27z m1047 -139 c35
-52 64 -113 85 -175 30 -89 32 -104 33 -240 0 -139 -2 -149 -33 -235 -32 -91
-97 -197 -149 -247 l-29 -28 -119 120 c-111 111 -118 120 -103 137 96 109 103
369 13 504 l-27 42 118 118 c137 137 121 137 211 4z m-1020 -1300 c177 -24
357 -69 513 -129 226 -87 349 -175 415 -296 30 -55 30 -56 33 -237 l4 -183
-1162 0 -1162 0 4 188 c3 173 5 190 27 232 34 67 115 145 208 201 100 60 335
148 493 183 256 57 422 67 627 41z"/>
</g>
</svg>
