<?xml version="1.0" standalone="no"?>
<!DOCTYPE svg PUBLIC "-//W3C//DTD SVG 20010904//EN"
 "http://www.w3.org/TR/2001/REC-SVG-20010904/DTD/svg10.dtd">
<svg version="1.0" xmlns="http://www.w3.org/2000/svg"
 width="512.000000pt" height="512.000000pt" viewBox="0 0 512.000000 512.000000"
 preserveAspectRatio="xMidYMid meet">
<metadata>
Created by potrace 1.11, written by Peter Selinger 2001-2013
</metadata>
<g transform="translate(0.000000,512.000000) scale(0.100000,-0.100000)"
fill="#000000" stroke="none">
<path d="M2275 4889 c-630 -81 -1213 -419 -1586 -919 -112 -150 -164 -236
-243 -400 -157 -326 -229 -647 -229 -1015 0 -381 74 -697 243 -1040 229 -464
596 -830 1065 -1060 231 -114 457 -184 714 -222 158 -23 484 -23 642 0 514 76
980 308 1339 667 794 794 912 2031 284 2971 -373 559 -991 934 -1674 1019
-100 12 -455 11 -555 -1z m1571 -1076 c178 -226 276 -470 305 -753 28 -278
-25 -556 -149 -793 -48 -92 -176 -270 -234 -324 l-33 -31 -118 113 -117 114
61 83 c81 111 163 279 193 399 51 200 55 360 15 562 -34 170 -106 322 -217
461 l-55 69 119 113 119 112 24 -21 c13 -12 52 -59 87 -104z m-1532 -338 c172
-59 318 -212 369 -383 13 -47 19 -97 19 -167 0 -135 -32 -237 -105 -334 -126
-165 -274 -241 -472 -241 -167 0 -287 51 -405 169 -120 121 -170 240 -170 406
0 166 50 285 170 406 97 99 206 155 335 173 62 9 191 -6 259 -29z m994 -75
c60 -75 130 -217 148 -301 9 -43 15 -121 15 -184 0 -138 -25 -241 -84 -344
-45 -79 -111 -161 -131 -161 -6 0 -63 52 -126 115 l-114 114 32 64 c79 159 80
280 7 436 l-36 74 23 26 c43 48 212 211 219 211 4 0 25 -23 47 -50z m-823
-1383 c250 -52 514 -155 643 -252 71 -54 108 -100 139 -174 21 -51 23 -72 23
-233 l0 -178 -1166 0 -1166 0 4 188 c3 180 4 189 30 243 49 99 182 204 343
272 171 71 359 125 539 152 145 22 459 13 611 -18z"/>
</g>
</svg>
